<svg xmlns="http://www.w3.org/2000/svg" shape-rendering="geometricPrecision" text-rendering="geometricPrecision" image-rendering="optimizeQuality" fill-rule="evenodd" clip-rule="evenodd" viewBox="0 0 512 512"><circle fill="#FFD337" transform="matrix(1.93594 -1.93594 1.93594 1.93594 256 256)" r="93.504"/><path fill="#40270E" d="M396.665 227.837c-29.924-21.837-58.509-21.512-85.76-.239-12.286 9.589-17.751 4.235-12.204-8.793 5.521-12.955 12.447-23.98 21.216-32.477C356.95 150.44 390.797 182.5 407 218.17c5.175 11.391 2.484 19.023-10.335 9.667zm30.488 55.356c2.212-6.102 8.956-9.258 15.058-7.046 6.102 2.212 9.258 8.956 7.046 15.058a206.869 206.869 0 01-19.687 40.107 208.245 208.245 0 01-27.881 35.066l-1.624 1.62c-39.912 39.484-91.855 59.226-143.822 59.229v.047c-51.939 0-103.877-19.761-143.823-59.274l-1.576-1.577-.648-.704a207.875 207.875 0 01-27.661-35.011 207.239 207.239 0 01-19.836-40.954c-2.161-6.126 1.056-12.85 7.183-15.01 6.126-2.162 12.85 1.056 15.01 7.182a183.531 183.531 0 0017.538 36.258 184.393 184.393 0 0024.524 31.049c.702.655 1.357 1.341 2.045 2.005 35.353 34.968 81.302 52.456 127.244 52.456v.047c45.911 0 91.862-17.504 127.244-52.503l1.44-1.439c9.593-9.698 17.847-20.111 24.749-31.012a183.796 183.796 0 0017.477-35.594zm-224.5-55.356c-29.926-21.837-58.509-21.512-85.762-.239-12.285 9.589-17.752 4.235-12.202-8.793 5.518-12.955 12.447-23.98 21.216-32.477 37.032-35.888 70.88-3.828 87.083 31.842 5.175 11.391 2.484 19.023-10.335 9.667z"/><path fill="#FF4081" d="M276.06 400.591c52.554-5.325 98.367-33.36 132.395-79.863 20.839 21.937 56.428 51.835 64.865 80.509 4.231 14.383 4.028 28.119-.468 40.145-7.352 19.659-23.488 36.793-42.081 48.07-61.729 37.436-116.814-47.871-154.711-88.861z"/><path fill="#E62B6B" d="M345.646 378.197a183.907 183.907 0 0012.531-7.898l2.776-1.731 38.856 40.531c3.355 3.527 3.214 9.112-.312 12.467-3.527 3.355-9.112 3.215-12.467-.312l-41.384-43.057z"/></svg>